# xmcd
#
# Track frame offsets: 
#        150
#        14228
#        23412
#        39191
#        50011
#        62779
#        77925
#        96438
#        114784
#        133886
#
# Disc length: 2058 seconds
#
# Revision: 0
# Processed by: cddbd v1.5.2PL0 Copyright (c) Steve Scherf et al.
# Submitted via: ExactAudioCopy v1.0b3
#
DISCID=8208080a
DTITLE=Chrome - Red Exposure
DYEAR=1979
DGENRE=Avantgarde
TTITLE0=New Age
TTITLE1=Rm. 101
TTITLE2=Eyes On Mars
TTITLE3=Jonestown
TTITLE4=Animal
TTITLE5=Static Gravity
TTITLE6=Eyes In The Center
TTITLE7=Electric Chair
TTITLE8=Night Of The Earth
TTITLE9=Isolation
EXTD=
EXTT0=
EXTT1=
EXTT2=
EXTT3=
EXTT4=
EXTT5=
EXTT6=
EXTT7=
EXTT8=
EXTT9=
PLAYORDER=
